<?xml version="1.0" standalone="no"?>
<!DOCTYPE svg PUBLIC "-//W3C//DTD SVG 20010904//EN"
 "http://www.w3.org/TR/2001/REC-SVG-20010904/DTD/svg10.dtd">
<svg version="1.0" xmlns="http://www.w3.org/2000/svg"
 width="9946.000000pt" height="2432.000000pt" viewBox="0 0 9946.000000 2432.000000"
 preserveAspectRatio="xMidYMid meet">

<g transform="translate(0.000000,2432.000000) scale(0.100000,-0.100000)"
fill="#000000" stroke="none">
<path d="M88149 24310 c-82 -13 -205 -46 -283 -75 -37 -14 -482 -210 -989
-436 -1407 -628 -2776 -1235 -5987 -2654 -2441 -1079 -2633 -1165 -3160 -1408
l-485 -225 -3 -7355 c-2 -5879 0 -7356 10 -7360 25 -9 10824 -4225 10873
-4244 l50 -20 5640 2341 5640 2341 0 7129 0 7130 -50 29 c-210 123 -90 70
-3550 1590 -3083 1354 -4702 2068 -6265 2762 -843 374 -914 404 -1045 436 -92
23 -308 33 -396 19z m3791 -5610 l3690 -1655 0 -4776 c0 -3810 -3 -4778 -12
-4786 -19 -14 -7434 -3443 -7446 -3443 -6 0 -1585 698 -3509 1551 -1924 853
-3504 1553 -3511 1556 -10 4 -12 1008 -10 4991 l3 4986 3535 1617 c1944 890
3543 1616 3553 1616 9 -1 1678 -747 3707 -1657z"/>
<path d="M45401 19804 l-4361 -4308 0 -7338 0 -7338 1885 0 1885 0 0 6453 0
6453 2501 2567 c1376 1412 2505 2567 2510 2567 4 0 1241 -1153 2748 -2561
l2741 -2561 2 -6462 3 -6461 1918 -3 1917 -2 0 6460 0 6459 2745 2566 c1510
1411 2749 2565 2754 2565 4 0 1125 -1154 2490 -2565 l2481 -2566 2 -6452 3
-6452 1905 0 1905 0 3 7322 2 7322 -4217 4117 c-2320 2265 -4311 4209 -4424
4321 l-206 204 -3683 -3481 c-3187 -3012 -3685 -3479 -3698 -3468 -18 14
-7085 6604 -7309 6815 l-142 134 -4360 -4307z"/>
<path d="M0 12150 l0 -11330 8660 0 8660 0 0 1900 0 1900 -6765 0 -6765 0 0
9430 0 9430 -1895 0 -1895 0 0 -11330z"/>
<path d="M34045 23288 c-3 -7 -6 -3111 -8 -6897 l-2 -6884 -3000 -2127 -3000
-2128 -51 36 c-29 21 -1377 978 -2998 2127 l-2945 2090 -1 6864 0 6863 -1112
-8 c-612 -5 -1470 -9 -1906 -9 l-792 0 2 -7890 3 -7890 4870 -3717 c2711
-2069 4874 -3713 4880 -3709 6 4 2221 1674 4923 3711 l4912 3703 -2 7936 -3
7936 -1883 3 c-1501 2 -1884 0 -1887 -10z"/>
</g>
</svg>
